<?xml version="1.0" encoding="utf-8" ?>
<svg baseProfile="tiny" height="100%" version="1.2" width="100%" xmlns="http://www.w3.org/2000/svg" xmlns:ev="http://www.w3.org/2001/xml-events" xmlns:xlink="http://www.w3.org/1999/xlink"><defs /><path d="M 187,877 L 186,878 L 184,878 L 185,879 L 190,879 L 192,881 L 193,881 L 194,882 L 197,882 L 198,883 L 202,883 L 203,884 L 207,884 L 208,885 L 209,885 L 210,886 L 211,885 L 212,885 L 213,886 L 217,886 L 218,887 L 226,887 L 227,888 L 232,888 L 233,887 L 234,888 L 239,888 L 240,889 L 243,889 L 244,888 L 246,888 L 247,889 L 253,889 L 254,890 L 255,889 L 263,889 L 264,890 L 265,889 L 266,890 L 295,890 L 296,891 L 297,890 L 311,890 L 312,891 L 312,890 L 313,889 L 314,889 L 315,890 L 324,890 L 325,891 L 326,891 L 327,890 L 328,891 L 329,890 L 330,891 L 331,890 L 333,890 L 334,891 L 335,890 L 336,891 L 337,890 L 338,890 L 339,891 L 340,891 L 341,890 L 342,891 L 343,890 L 348,890 L 349,891 L 349,890 L 350,889 L 351,890 L 395,890 L 396,891 L 397,890 L 398,890 L 399,891 L 400,891 L 401,890 L 404,890 L 405,891 L 407,891 L 408,890 L 425,890 L 426,891 L 427,890 L 434,890 L 435,889 L 436,890 L 440,890 L 441,889 L 442,890 L 443,889 L 444,890 L 447,890 L 448,891 L 449,890 L 461,890 L 462,889 L 463,889 L 464,890 L 464,891 L 465,890 L 467,890 L 468,891 L 469,890 L 471,890 L 472,889 L 473,889 L 474,890 L 483,890 L 484,889 L 486,889 L 487,890 L 488,889 L 489,890 L 490,889 L 491,889 L 492,890 L 495,890 L 496,889 L 499,889 L 500,890 L 501,889 L 509,889 L 510,890 L 511,889 L 517,889 L 518,890 L 519,889 L 520,890 L 521,889 L 525,889 L 526,890 L 527,889 L 528,889 L 529,890 L 535,890 L 536,889 L 537,890 L 543,890 L 544,889 L 545,890 L 546,890 L 547,889 L 548,890 L 553,890 L 554,891 L 555,890 L 559,890 L 560,891 L 562,891 L 563,890 L 564,890 L 565,891 L 566,890 L 568,890 L 569,891 L 570,890 L 572,890 L 573,891 L 574,891 L 575,890 L 578,890 L 579,891 L 580,890 L 583,890 L 584,891 L 585,890 L 586,890 L 587,891 L 588,891 L 589,890 L 590,891 L 591,890 L 592,891 L 593,891 L 594,890 L 610,890 L 611,889 L 612,890 L 615,890 L 616,889 L 617,889 L 618,890 L 619,889 L 620,890 L 625,890 L 626,889 L 627,889 L 628,890 L 631,890 L 632,889 L 633,890 L 634,889 L 635,890 L 636,890 L 637,889 L 638,890 L 640,890 L 641,889 L 642,890 L 643,889 L 645,889 L 646,890 L 648,890 L 649,889 L 654,889 L 655,890 L 656,889 L 659,889 L 660,890 L 661,889 L 669,889 L 670,888 L 671,889 L 677,889 L 678,888 L 679,889 L 681,889 L 682,888 L 683,889 L 684,888 L 687,888 L 688,889 L 694,889 L 695,888 L 696,888 L 697,889 L 698,888 L 703,888 L 704,889 L 705,888 L 706,888 L 707,889 L 709,889 L 710,888 L 711,888 L 712,889 L 713,888 L 714,888 L 715,889 L 716,888 L 718,888 L 719,889 L 720,888 L 722,888 L 723,887 L 724,888 L 726,888 L 727,887 L 735,887 L 736,886 L 746,886 L 747,885 L 753,885 L 754,884 L 758,884 L 759,883 L 761,883 L 762,882 L 766,882 L 767,881 L 768,881 L 769,880 L 770,880 L 771,879 L 775,879 L 776,878 L 778,878 L 772,878 L 771,877 L 190,877 L 189,878 L 188,878 Z" fill="currentColor" /><path d="M 527,98 L 526,99 L 520,99 L 519,100 L 518,99 L 514,99 L 513,100 L 512,99 L 508,99 L 507,100 L 503,100 L 502,101 L 496,101 L 495,102 L 491,102 L 490,103 L 489,103 L 488,102 L 487,103 L 486,102 L 485,102 L 484,103 L 482,103 L 481,104 L 480,103 L 477,106 L 476,105 L 474,105 L 473,106 L 472,106 L 471,105 L 470,106 L 468,106 L 467,107 L 464,107 L 463,108 L 460,108 L 459,109 L 457,109 L 456,110 L 452,110 L 451,111 L 450,111 L 449,112 L 448,111 L 448,112 L 447,113 L 445,113 L 444,114 L 443,114 L 442,115 L 441,114 L 440,115 L 438,115 L 437,116 L 434,116 L 433,117 L 432,117 L 431,118 L 428,118 L 427,119 L 426,118 L 426,119 L 425,120 L 419,120 L 417,122 L 416,122 L 416,123 L 415,124 L 414,123 L 413,124 L 412,124 L 411,125 L 409,125 L 408,126 L 407,125 L 406,125 L 404,127 L 402,127 L 401,128 L 400,128 L 399,129 L 397,129 L 396,130 L 395,130 L 394,131 L 393,131 L 391,133 L 390,132 L 389,133 L 388,133 L 387,134 L 385,134 L 384,135 L 383,135 L 382,136 L 381,136 L 380,137 L 378,137 L 377,138 L 376,138 L 376,139 L 375,140 L 374,139 L 372,141 L 370,141 L 369,142 L 368,142 L 365,145 L 364,145 L 362,147 L 360,147 L 359,148 L 358,148 L 358,149 L 357,150 L 356,149 L 354,151 L 353,151 L 350,154 L 349,154 L 347,156 L 346,156 L 345,157 L 342,157 L 342,158 L 341,159 L 340,159 L 337,162 L 335,162 L 333,164 L 332,164 L 332,165 L 331,166 L 330,166 L 329,167 L 328,167 L 328,169 L 326,171 L 325,171 L 322,174 L 322,175 L 321,176 L 320,176 L 319,175 L 319,176 L 318,177 L 317,177 L 317,178 L 316,179 L 315,179 L 316,180 L 315,181 L 314,181 L 311,184 L 310,184 L 308,186 L 308,187 L 306,189 L 305,189 L 305,191 L 304,192 L 303,192 L 303,193 L 300,196 L 299,196 L 299,197 L 298,198 L 297,198 L 297,199 L 293,203 L 292,203 L 292,204 L 290,206 L 290,207 L 289,208 L 288,207 L 288,208 L 287,209 L 286,208 L 287,209 L 286,210 L 285,210 L 281,214 L 278,214 L 276,216 L 275,216 L 273,218 L 272,218 L 272,219 L 271,220 L 269,220 L 268,221 L 267,221 L 266,222 L 265,222 L 264,223 L 263,222 L 260,225 L 259,224 L 259,225 L 258,226 L 256,226 L 255,227 L 253,227 L 252,228 L 250,228 L 249,229 L 246,229 L 245,230 L 241,230 L 240,231 L 238,231 L 237,232 L 235,232 L 234,233 L 232,233 L 231,234 L 228,234 L 227,235 L 224,235 L 223,236 L 222,236 L 221,237 L 218,237 L 217,238 L 214,238 L 213,239 L 210,239 L 210,240 L 209,241 L 208,241 L 207,240 L 206,241 L 203,241 L 202,242 L 201,242 L 200,243 L 199,243 L 198,244 L 195,244 L 194,245 L 193,245 L 192,246 L 190,246 L 190,248 L 188,250 L 179,250 L 286,250 L 287,251 L 287,279 L 286,280 L 207,280 L 206,279 L 207,278 L 285,278 L 285,252 L 183,252 L 182,253 L 179,253 L 179,376 L 180,376 L 181,377 L 180,378 L 178,378 L 177,377 L 177,266 L 176,265 L 176,256 L 176,258 L 175,259 L 175,261 L 174,262 L 174,263 L 173,264 L 173,265 L 172,266 L 172,269 L 171,270 L 171,271 L 170,272 L 170,273 L 169,274 L 169,279 L 168,280 L 168,282 L 167,283 L 167,285 L 166,286 L 166,287 L 165,288 L 165,294 L 164,295 L 165,296 L 165,297 L 164,298 L 164,303 L 163,304 L 164,305 L 163,306 L 163,312 L 162,313 L 162,314 L 163,315 L 162,316 L 162,322 L 161,323 L 162,324 L 161,325 L 161,326 L 162,327 L 161,328 L 161,330 L 160,331 L 161,332 L 161,334 L 160,335 L 160,339 L 159,340 L 160,341 L 159,342 L 160,343 L 159,344 L 159,346 L 160,347 L 159,348 L 160,349 L 159,350 L 159,351 L 160,352 L 160,353 L 159,354 L 159,357 L 160,358 L 159,359 L 159,369 L 158,370 L 158,371 L 159,372 L 158,373 L 158,376 L 159,377 L 158,378 L 158,380 L 157,381 L 157,383 L 158,384 L 158,385 L 157,386 L 157,390 L 156,391 L 157,392 L 156,393 L 156,394 L 157,395 L 156,396 L 156,399 L 155,400 L 156,401 L 155,402 L 155,404 L 156,405 L 154,407 L 155,408 L 155,409 L 154,410 L 155,411 L 155,413 L 154,414 L 154,424 L 155,425 L 155,426 L 154,427 L 155,428 L 155,434 L 156,435 L 156,437 L 155,438 L 155,439 L 157,441 L 157,442 L 156,443 L 156,444 L 157,445 L 157,446 L 158,447 L 157,448 L 157,452 L 158,453 L 157,454 L 158,455 L 158,464 L 159,465 L 158,466 L 158,467 L 159,468 L 158,469 L 158,471 L 159,472 L 159,474 L 158,475 L 158,477 L 159,478 L 159,481 L 158,482 L 159,483 L 158,484 L 159,485 L 158,486 L 158,487 L 159,487 L 160,488 L 159,489 L 159,497 L 158,498 L 158,499 L 159,500 L 159,504 L 160,505 L 160,507 L 159,508 L 160,509 L 159,510 L 159,511 L 160,512 L 159,513 L 159,514 L 160,515 L 160,516 L 159,517 L 159,518 L 160,519 L 160,520 L 159,521 L 160,522 L 160,537 L 159,538 L 160,539 L 160,540 L 159,541 L 160,542 L 160,545 L 159,546 L 160,547 L 159,548 L 159,551 L 160,552 L 160,557 L 159,558 L 160,559 L 160,587 L 161,588 L 160,589 L 160,601 L 161,602 L 160,603 L 160,633 L 161,634 L 160,635 L 160,636 L 161,637 L 160,638 L 160,639 L 161,640 L 161,642 L 160,643 L 160,644 L 161,645 L 160,646 L 160,648 L 161,649 L 161,650 L 160,651 L 161,652 L 161,654 L 160,655 L 160,656 L 161,657 L 161,658 L 160,659 L 161,660 L 160,661 L 161,662 L 160,663 L 160,670 L 161,671 L 161,678 L 160,679 L 160,688 L 161,689 L 160,690 L 160,700 L 161,701 L 160,702 L 161,703 L 160,704 L 160,715 L 161,716 L 160,717 L 160,719 L 161,720 L 161,721 L 160,722 L 160,727 L 161,728 L 161,730 L 160,731 L 161,732 L 161,733 L 160,734 L 161,735 L 161,738 L 160,739 L 161,740 L 161,741 L 160,742 L 161,743 L 161,745 L 160,746 L 161,747 L 161,748 L 160,749 L 161,750 L 161,751 L 162,752 L 162,753 L 161,754 L 162,755 L 162,756 L 161,757 L 161,759 L 162,760 L 162,762 L 161,763 L 162,764 L 162,771 L 163,772 L 162,773 L 162,775 L 163,776 L 162,777 L 162,784 L 163,785 L 163,787 L 162,788 L 162,789 L 163,790 L 163,792 L 164,793 L 163,794 L 164,795 L 164,796 L 163,797 L 163,802 L 164,803 L 163,804 L 164,805 L 163,806 L 164,807 L 164,815 L 165,816 L 165,820 L 166,821 L 165,822 L 166,823 L 165,824 L 165,828 L 166,829 L 166,831 L 165,832 L 165,833 L 166,834 L 166,838 L 167,839 L 166,840 L 167,841 L 166,842 L 167,843 L 166,844 L 167,845 L 167,846 L 168,846 L 169,847 L 168,848 L 169,849 L 169,851 L 170,852 L 170,855 L 172,857 L 172,858 L 173,859 L 173,861 L 175,863 L 175,866 L 176,867 L 176,870 L 176,860 L 177,859 L 177,456 L 178,455 L 179,456 L 179,875 L 783,875 L 783,397 L 784,396 L 785,397 L 785,872 L 785,869 L 786,868 L 786,864 L 787,863 L 788,863 L 788,862 L 789,861 L 789,857 L 790,856 L 790,855 L 791,854 L 791,852 L 792,851 L 791,850 L 791,849 L 792,848 L 792,847 L 793,846 L 793,840 L 794,839 L 794,829 L 795,828 L 795,821 L 794,820 L 795,819 L 795,814 L 796,813 L 795,812 L 795,811 L 796,810 L 795,809 L 795,808 L 797,806 L 796,806 L 795,805 L 796,804 L 796,791 L 795,790 L 795,789 L 796,788 L 796,767 L 797,766 L 796,765 L 797,764 L 796,763 L 796,759 L 797,758 L 796,757 L 796,756 L 797,755 L 796,754 L 796,752 L 797,751 L 797,748 L 796,747 L 796,746 L 797,745 L 797,743 L 796,742 L 796,740 L 797,739 L 796,738 L 796,737 L 797,736 L 797,734 L 796,733 L 797,732 L 796,731 L 796,730 L 797,729 L 797,726 L 796,725 L 797,724 L 797,723 L 796,722 L 797,721 L 797,718 L 798,717 L 797,716 L 797,712 L 798,711 L 798,709 L 797,708 L 798,707 L 798,706 L 797,705 L 798,704 L 797,703 L 797,695 L 798,694 L 797,693 L 797,687 L 798,686 L 798,684 L 797,683 L 797,679 L 798,678 L 798,676 L 797,675 L 797,673 L 798,672 L 797,671 L 798,670 L 798,668 L 797,667 L 798,666 L 797,665 L 798,664 L 797,663 L 798,662 L 798,660 L 797,659 L 798,658 L 797,657 L 798,656 L 797,655 L 798,654 L 798,652 L 797,651 L 798,650 L 798,648 L 797,647 L 797,646 L 798,645 L 797,644 L 797,641 L 798,640 L 797,639 L 798,638 L 798,637 L 797,636 L 798,635 L 798,626 L 797,625 L 798,624 L 798,622 L 797,621 L 798,620 L 797,619 L 797,614 L 798,613 L 798,610 L 797,609 L 797,587 L 798,586 L 797,585 L 797,583 L 798,582 L 798,579 L 797,578 L 797,574 L 798,573 L 798,571 L 797,570 L 797,566 L 798,565 L 797,564 L 797,563 L 798,562 L 797,561 L 797,555 L 798,554 L 797,553 L 798,552 L 797,551 L 797,550 L 798,549 L 797,548 L 797,543 L 798,542 L 798,540 L 797,539 L 798,538 L 797,537 L 797,535 L 798,534 L 798,533 L 797,532 L 797,529 L 798,528 L 798,524 L 797,523 L 798,522 L 798,520 L 797,519 L 797,518 L 798,517 L 798,516 L 797,515 L 798,514 L 797,513 L 797,512 L 798,511 L 798,503 L 799,502 L 798,501 L 798,495 L 799,494 L 799,490 L 798,489 L 799,488 L 799,486 L 798,485 L 798,482 L 799,481 L 799,473 L 798,472 L 800,470 L 799,469 L 799,468 L 800,467 L 799,466 L 799,463 L 800,462 L 800,436 L 801,435 L 801,434 L 800,433 L 801,432 L 801,429 L 800,428 L 801,427 L 801,426 L 800,425 L 801,424 L 801,417 L 800,416 L 801,415 L 801,413 L 800,412 L 801,411 L 801,408 L 802,407 L 802,400 L 803,399 L 802,398 L 803,397 L 803,391 L 804,390 L 804,385 L 805,384 L 805,383 L 806,382 L 806,380 L 807,379 L 808,379 L 808,378 L 807,377 L 809,375 L 809,373 L 810,372 L 810,369 L 811,368 L 810,367 L 811,366 L 811,363 L 812,362 L 811,361 L 812,360 L 811,359 L 811,358 L 812,357 L 812,354 L 811,353 L 812,352 L 812,346 L 811,345 L 811,343 L 810,342 L 810,340 L 809,339 L 809,337 L 808,336 L 807,337 L 806,336 L 806,334 L 805,333 L 805,332 L 804,331 L 804,328 L 803,327 L 803,325 L 802,324 L 802,319 L 801,318 L 801,317 L 800,316 L 800,313 L 801,312 L 799,310 L 799,309 L 798,308 L 798,304 L 797,303 L 797,300 L 796,299 L 797,298 L 796,297 L 796,291 L 795,290 L 795,287 L 794,286 L 795,285 L 794,284 L 794,280 L 793,279 L 794,278 L 793,277 L 793,274 L 792,273 L 792,271 L 791,270 L 791,265 L 788,262 L 788,260 L 787,259 L 787,258 L 786,257 L 786,256 L 785,255 L 785,254 L 785,327 L 784,328 L 780,328 L 779,327 L 780,326 L 783,326 L 783,252 L 658,252 L 657,253 L 656,252 L 656,251 L 657,250 L 781,250 L 780,250 L 779,249 L 778,249 L 777,248 L 776,248 L 774,246 L 772,246 L 771,245 L 769,245 L 768,244 L 767,244 L 766,243 L 764,243 L 763,242 L 761,242 L 760,241 L 756,241 L 755,240 L 755,239 L 754,239 L 753,238 L 752,239 L 751,238 L 748,238 L 747,237 L 745,237 L 744,236 L 743,237 L 742,236 L 741,237 L 740,236 L 737,236 L 736,235 L 735,236 L 734,235 L 729,235 L 728,234 L 727,234 L 726,235 L 725,234 L 721,234 L 720,233 L 715,233 L 714,232 L 710,232 L 708,230 L 707,231 L 706,231 L 705,230 L 703,230 L 702,229 L 700,229 L 699,228 L 695,228 L 694,227 L 692,227 L 691,226 L 690,226 L 687,223 L 685,223 L 683,221 L 678,221 L 676,219 L 675,219 L 673,217 L 672,217 L 671,216 L 670,216 L 669,215 L 669,214 L 668,214 L 667,213 L 665,213 L 664,212 L 665,211 L 664,211 L 663,210 L 663,209 L 662,210 L 661,209 L 661,208 L 660,207 L 659,207 L 657,205 L 657,204 L 656,203 L 656,202 L 653,199 L 653,198 L 652,197 L 652,196 L 651,195 L 651,194 L 648,191 L 648,190 L 646,188 L 646,187 L 645,186 L 645,185 L 644,184 L 643,184 L 642,183 L 643,182 L 641,180 L 642,179 L 641,179 L 640,178 L 640,176 L 639,175 L 639,174 L 637,172 L 637,170 L 636,169 L 636,168 L 635,167 L 635,166 L 633,164 L 633,162 L 630,159 L 630,157 L 628,155 L 628,154 L 627,153 L 627,152 L 626,151 L 626,150 L 624,148 L 624,146 L 621,143 L 621,142 L 620,141 L 620,140 L 617,137 L 617,136 L 612,131 L 612,130 L 611,130 L 610,129 L 610,128 L 608,126 L 607,126 L 606,125 L 606,124 L 605,124 L 601,120 L 600,120 L 599,119 L 599,118 L 598,117 L 597,117 L 594,114 L 593,114 L 592,113 L 591,114 L 590,114 L 589,113 L 589,112 L 588,112 L 586,110 L 584,110 L 582,108 L 580,108 L 578,106 L 577,107 L 576,106 L 574,106 L 573,105 L 572,105 L 571,104 L 569,104 L 568,103 L 567,103 L 566,102 L 562,102 L 561,101 L 560,101 L 559,102 L 558,101 L 557,101 L 556,100 L 555,101 L 554,100 L 551,100 L 550,99 L 535,99 L 534,98 Z" fill="currentColor" /></svg>